<?xml version="1.0" standalone="no"?>
<!DOCTYPE svg PUBLIC "-//W3C//DTD SVG 20010904//EN"
 "http://www.w3.org/TR/2001/REC-SVG-20010904/DTD/svg10.dtd">
<svg version="1.0" xmlns="http://www.w3.org/2000/svg"
 width="48.000000pt" height="48.000000pt" viewBox="0 0 48.000000 48.000000"
 preserveAspectRatio="xMidYMid meet">

<g transform="translate(0.000000,48.000000) scale(0.100000,-0.100000)"
fill="#000000" stroke="none">
<path d="M47 432 c-22 -24 -21 -35 2 -56 17 -16 19 -15 31 14 7 16 17 30 22
30 6 0 5 7 -2 15 -17 20 -33 19 -53 -3z"/>
<path d="M200 435 c-7 -8 -8 -15 -2 -15 5 0 15 -14 22 -30 12 -29 14 -30 31
-14 24 21 24 36 1 57 -23 21 -36 21 -52 2z"/>
<path d="M110 380 c0 -5 5 -10 10 -10 6 0 10 5 10 10 0 6 -4 10 -10 10 -5 0
-10 -4 -10 -10z"/>
<path d="M190 380 c0 -5 5 -10 10 -10 6 0 10 5 10 10 0 6 -4 10 -10 10 -5 0
-10 -4 -10 -10z"/>
<path d="M130 330 c0 -23 4 -30 20 -30 16 0 20 7 20 30 0 23 -4 30 -20 30 -16
0 -20 -7 -20 -30z"/>
<path d="M306 225 c-11 -8 -28 -15 -38 -15 -10 0 -18 -4 -18 -10 0 -5 4 -10 8
-10 12 0 42 -56 42 -79 0 -22 32 -61 50 -61 6 0 19 9 30 20 24 24 20 70 -12
133 -20 40 -32 44 -62 22z"/>
<path d="M160 196 c0 -2 9 -6 20 -9 11 -3 20 -1 20 4 0 5 -9 9 -20 9 -11 0
-20 -2 -20 -4z"/>
</g>
</svg>
