<?xml version="1.0" standalone="no"?>
<!DOCTYPE svg PUBLIC "-//W3C//DTD SVG 20010904//EN"
 "http://www.w3.org/TR/2001/REC-SVG-20010904/DTD/svg10.dtd">
<svg version="1.0" xmlns="http://www.w3.org/2000/svg"
 width="30.000000pt" height="30.000000pt" viewBox="0 0 30.000000 30.000000"
 preserveAspectRatio="xMidYMid meet">

<g transform="translate(0.000000,30.000000) scale(0.100000,-0.100000)"
fill="#000000" stroke="none">
<path d="M89 245 c-24 -19 -50 -35 -56 -35 -19 0 -16 -14 7 -35 11 -10 20 -31
20 -46 0 -15 9 -44 21 -63 36 -61 102 -61 138 0 12 19 21 48 21 63 0 15 9 36
20 46 23 21 26 35 8 35 -7 0 -33 16 -57 35 -24 19 -52 35 -61 35 -9 0 -37 -16
-61 -35z m77 4 c10 -17 -13 -36 -27 -22 -12 12 -4 33 11 33 5 0 12 -5 16 -11z
m12 -54 c0 -15 -7 -20 -28 -20 -21 0 -27 5 -27 20 0 15 6 20 27 20 21 0 28 -5
28 -20z m40 -68 c6 -31 -25 -55 -68 -53 -43 2 -70 20 -70 46 0 27 11 31 74 28
50 -2 61 -6 64 -21z"/>
<path d="M164 129 c-10 -17 13 -36 27 -22 12 12 4 33 -11 33 -5 0 -12 -5 -16
-11z"/>
<path d="M110 120 c0 -5 5 -10 10 -10 6 0 10 5 10 10 0 6 -4 10 -10 10 -5 0
-10 -4 -10 -10z"/>
</g>
</svg>
