<?xml version="1.0" standalone="no"?>
<!DOCTYPE svg PUBLIC "-//W3C//DTD SVG 20010904//EN"
 "http://www.w3.org/TR/2001/REC-SVG-20010904/DTD/svg10.dtd">
<svg version="1.0" xmlns="http://www.w3.org/2000/svg"
 width="60.000000pt" height="60.000000pt" viewBox="0 0 60.000000 60.000000"
 preserveAspectRatio="xMidYMid meet">

<g transform="translate(0.000000,60.000000) scale(0.100000,-0.100000)"
fill="#000000" stroke="none">
<path d="M327 562 c-25 -27 -22 -78 5 -96 12 -9 30 -16 40 -16 9 0 22 -9 28
-19 14 -27 13 -81 -2 -81 -6 0 -8 -3 -4 -7 4 -4 22 -6 41 -5 43 4 70 -24 85
-88 9 -36 9 -58 0 -90 -9 -32 -9 -49 0 -71 7 -15 9 -33 5 -38 -4 -7 -84 -11
-234 -11 -215 0 -229 1 -246 20 -15 17 -16 24 -7 45 13 28 15 29 60 16 97 -28
190 75 162 179 -19 69 -84 92 -136 47 -35 -31 -38 -82 -5 -109 13 -10 29 -18
37 -18 23 0 16 20 -11 30 -31 12 -34 51 -5 80 26 26 46 25 75 -5 59 -58 6
-185 -78 -185 -46 0 -83 26 -101 70 -22 55 -20 87 6 140 30 58 78 90 135 90
107 0 193 -90 193 -203 0 -75 -20 -99 -83 -99 -50 0 -63 -14 -22 -24 90 -22
149 58 125 170 -21 100 -112 176 -210 176 -79 0 -133 -37 -165 -112 -21 -53
-19 -107 9 -161 13 -26 20 -47 16 -47 -4 0 -13 -14 -20 -31 -11 -27 -11 -33 7
-57 l20 -27 243 0 c218 0 244 2 254 17 7 12 7 26 -2 50 -8 25 -9 44 -1 72 14
49 3 107 -27 151 l-24 36 20 39 c25 49 25 71 0 93 -37 31 -16 82 31 75 36 -5
47 -33 27 -68 -19 -33 -10 -40 15 -12 35 38 5 102 -48 102 -56 0 -85 -70 -44
-111 23 -23 20 -53 -9 -89 -22 -27 -52 -21 -52 10 0 38 -29 80 -54 80 -29 0
-49 22 -44 51 7 49 69 50 76 0 5 -29 22 -27 22 2 0 50 -70 76 -103 39z"/>
<path d="M360 515 c0 -8 5 -15 10 -15 6 0 10 7 10 15 0 8 -4 15 -10 15 -5 0
-10 -7 -10 -15z"/>
<path d="M526 521 c-4 -5 -2 -12 3 -15 5 -4 12 -2 15 3 4 5 2 12 -3 15 -5 4
-12 2 -15 -3z"/>
</g>
</svg>
