<?xml version="1.0" standalone="no"?>
<!DOCTYPE svg PUBLIC "-//W3C//DTD SVG 20010904//EN"
 "http://www.w3.org/TR/2001/REC-SVG-20010904/DTD/svg10.dtd">
<svg version="1.0" xmlns="http://www.w3.org/2000/svg"
 width="64.000000pt" height="64.000000pt" viewBox="0 0 64.000000 64.000000"
 preserveAspectRatio="xMidYMid meet">

<g transform="translate(0.000000,64.000000) scale(0.100000,-0.100000)"
fill="#000000" stroke="none">
<path d="M284 626 c-19 -14 -19 -15 5 -40 14 -14 32 -26 40 -26 9 0 -3 -9 -26
-19 -23 -11 -46 -28 -52 -39 -16 -29 -14 -62 3 -62 13 0 13 -4 0 -35 -7 -19
-14 -46 -14 -59 0 -33 20 -76 35 -76 19 0 45 34 45 60 0 18 3 20 14 11 10 -8
16 -9 21 -1 9 14 22 12 29 -5 10 -26 -5 -45 -35 -45 -37 0 -38 -18 -1 -22 21
-2 26 -8 23 -23 -2 -11 -4 -32 -5 -47 -1 -22 -7 -28 -34 -33 -77 -14 -196 -81
-207 -116 -5 -15 -16 -19 -51 -19 l-44 0 0 85 0 85 45 0 c33 0 45 4 45 15 0
11 -12 15 -45 15 -38 0 -45 3 -45 20 0 19 7 20 105 20 63 0 105 4 105 10 0 6
-47 10 -120 10 l-120 0 0 -145 0 -145 320 0 320 0 0 84 c0 94 -2 96 -73 96
-40 0 -43 2 -54 37 -6 21 -9 41 -7 45 3 5 32 8 64 8 l59 0 7 46 c4 31 2 57 -9
85 -13 33 -13 39 -1 39 17 0 18 33 3 61 -6 11 -29 29 -52 39 -23 10 -35 19
-26 19 8 1 26 13 40 27 24 25 24 26 5 40 -36 26 -85 15 -133 -29 l-23 -20 -22
20 c-49 44 -98 55 -134 29z m104 -41 c16 -14 33 -36 36 -50 8 -32 24 -32 32 0
8 33 59 75 90 75 14 0 22 -4 19 -10 -3 -5 -19 -10 -34 -10 -34 0 -44 -9 -29
-27 6 -7 9 -15 7 -16 -2 -1 -19 -12 -36 -25 l-33 -23 -32 23 c-18 13 -35 24
-37 25 -2 1 1 9 7 16 15 18 5 27 -29 27 -15 0 -31 5 -34 10 -13 21 45 9 73
-15z m13 -92 c17 -17 16 -18 -56 -20 -41 -1 -75 1 -75 4 0 4 8 15 17 26 22 24
86 18 114 -10z m187 11 c37 -26 25 -33 -52 -31 -61 2 -72 4 -63 16 26 31 81
39 115 15z m-178 -61 c0 -4 -14 -22 -32 -40 -29 -30 -33 -32 -49 -17 -25 23
-39 9 -39 -37 0 -21 -4 -39 -10 -39 -5 0 -10 18 -10 41 0 57 42 99 99 99 23 0
41 -3 41 -7z m171 -22 c23 -23 29 -39 29 -70 0 -23 -4 -41 -10 -41 -5 0 -10
18 -10 39 0 46 -14 60 -39 37 -16 -15 -20 -13 -49 17 -18 18 -32 36 -32 40 0
4 18 7 41 7 31 0 47 -6 70 -29z m-101 -62 c0 -5 -18 -9 -40 -9 -22 0 -40 2
-40 5 0 4 7 20 16 38 l17 31 23 -28 c13 -15 24 -31 24 -37z m45 -19 c5 -8 11
-7 21 1 12 9 14 6 14 -20 0 -28 -3 -31 -29 -31 -30 0 -45 19 -35 45 7 17 20
19 29 5z m-65 -39 c15 -28 13 -31 -20 -31 -31 0 -35 6 -24 34 8 22 31 20 44
-3z m150 -211 c0 -64 -1 -66 -31 -49 -19 10 -20 11 -3 23 9 7 14 18 10 24 -10
17 -26 15 -26 -3 0 -17 -35 -21 -45 -5 -3 6 -1 10 4 10 6 0 11 14 11 30 0 28
2 30 40 30 l40 0 0 -60z m-258 28 c2 -13 15 -28 29 -35 14 -7 34 -21 44 -33
l18 -20 -148 0 c-132 0 -146 2 -135 15 23 28 69 56 123 75 66 24 65 24 69 -2z"/>
<path d="M270 80 c0 -5 -7 -10 -15 -10 -8 0 -15 -7 -15 -15 0 -8 7 -15 15 -15
8 0 15 7 15 15 0 8 5 15 10 15 6 0 10 5 10 10 0 6 -4 10 -10 10 -5 0 -10 -4
-10 -10z"/>
<path d="M110 616 c0 -18 -31 -29 -55 -20 -14 6 -16 3 -11 -13 8 -26 -2 -53
-20 -53 -8 0 -14 -4 -14 -10 0 -5 6 -10 14 -10 18 0 29 -31 20 -55 -6 -14 -3
-16 13 -11 26 8 53 -2 53 -20 0 -8 5 -14 10 -14 6 0 10 6 10 14 0 18 31 29 55
19 15 -5 17 -3 12 12 -10 24 1 55 19 55 8 0 14 5 14 10 0 6 -6 10 -14 10 -18
0 -29 31 -19 55 5 15 3 17 -12 12 -24 -10 -55 1 -55 19 0 8 -4 14 -10 14 -5 0
-10 -6 -10 -14z m48 -58 c28 -28 2 -88 -38 -88 -40 0 -66 60 -38 88 7 7 24 12
38 12 14 0 31 -5 38 -12z"/>
<path d="M146 215 c-4 -10 1 -15 14 -15 13 0 18 5 14 15 -4 8 -10 15 -14 15
-4 0 -10 -7 -14 -15z"/>
<path d="M200 215 c0 -8 7 -15 15 -15 8 0 15 7 15 15 0 8 -7 15 -15 15 -8 0
-15 -7 -15 -15z"/>
<path d="M50 145 c0 -8 7 -15 15 -15 8 0 15 7 15 15 0 8 -7 15 -15 15 -8 0
-15 -7 -15 -15z"/>
<path d="M106 145 c8 -20 54 -20 54 0 0 10 -10 15 -30 15 -22 0 -28 -4 -24
-15z"/>
</g>
</svg>
