<?xml version="1.0" standalone="no"?>
<!DOCTYPE svg PUBLIC "-//W3C//DTD SVG 20010904//EN"
 "http://www.w3.org/TR/2001/REC-SVG-20010904/DTD/svg10.dtd">
<svg version="1.0" xmlns="http://www.w3.org/2000/svg"
 width="100.000000pt" height="100.000000pt" viewBox="0 0 100.000000 100.000000"
 preserveAspectRatio="xMidYMid meet">

<g transform="translate(0.000000,100.000000) scale(0.100000,-0.100000)"
fill="#000000" stroke="none">
<path d="M364 887 c-39 -23 -104 -80 -104 -92 0 -7 -15 -28 -34 -47 -22 -23
-37 -50 -41 -74 -4 -22 -14 -58 -22 -81 -11 -30 -13 -53 -7 -80 4 -21 7 -54 5
-74 -2 -26 4 -44 23 -66 16 -19 26 -43 26 -62 0 -33 37 -81 63 -81 7 0 28 -11
47 -25 52 -38 125 -30 163 19 6 8 10 7 14 -2 8 -20 59 -42 99 -42 21 0 46 -7
56 -17 11 -10 38 -18 64 -19 35 -1 52 -9 84 -38 45 -41 69 -45 95 -16 23 26
14 60 -27 96 -28 25 -33 36 -33 76 0 35 -6 53 -24 72 -20 22 -22 28 -11 41 21
26 30 209 11 228 -6 6 -11 24 -11 39 0 35 -33 103 -54 111 -9 4 -22 22 -30 42
-8 19 -19 35 -24 35 -5 0 -23 13 -40 29 -39 38 -90 48 -132 28 -26 -14 -34
-14 -58 -1 -33 17 -70 17 -98 1z m98 -34 c15 -13 18 -31 18 -100 0 -82 0 -83
-25 -83 -29 0 -34 -15 -7 -23 37 -9 35 -106 -2 -120 -27 -10 -19 -30 9 -23
l25 6 0 -114 c0 -131 -9 -158 -57 -181 -38 -18 -62 -14 -88 15 -10 11 -26 20
-35 20 -35 0 -64 35 -63 76 1 29 -5 42 -23 56 -21 17 -23 26 -21 81 2 56 5 62
25 65 12 2 22 7 22 12 0 16 -19 21 -40 10 -17 -9 -20 -8 -20 7 1 10 7 29 15
43 8 14 14 39 15 56 0 43 34 84 69 84 35 0 77 -32 85 -65 4 -14 11 -25 16 -25
16 0 11 33 -10 68 l-20 33 23 22 c13 12 32 27 43 34 18 11 17 12 -9 12 -20 1
-38 -9 -58 -30 -21 -22 -34 -29 -49 -24 -11 3 -20 10 -20 14 0 4 23 26 51 49
57 46 99 54 131 25z m169 -10 c71 -63 72 -65 58 -74 -23 -14 -47 -10 -54 9 -5
19 -44 42 -70 42 -25 0 -17 -15 15 -27 39 -15 47 -38 26 -73 -17 -30 -22 -70
-7 -70 5 0 12 11 15 25 9 37 45 65 83 65 27 0 37 -6 53 -32 11 -18 20 -45 20
-59 0 -15 7 -40 15 -55 22 -42 20 -57 -5 -44 -21 11 -40 6 -40 -11 0 -5 9 -9
20 -9 11 0 20 -3 21 -7 0 -5 2 -34 4 -66 4 -56 3 -59 -25 -75 -36 -21 -37 -30
-6 -42 40 -15 59 -53 51 -99 -8 -48 -19 -58 -71 -67 -34 -5 -45 -2 -72 21 -26
22 -35 25 -47 15 -20 -16 -61 -5 -91 25 -23 23 -24 30 -24 148 l0 124 25 -5
c30 -5 35 17 5 25 -39 10 -41 101 -2 118 29 13 28 25 -3 25 -25 0 -25 1 -25
86 0 71 3 89 18 100 29 23 79 17 113 -13z m246 -727 c-4 -9 -12 -16 -19 -16
-9 0 -8 3 2 10 13 8 13 13 1 32 -12 22 -12 22 4 6 10 -9 15 -23 12 -32z m-52
14 c10 -11 16 -20 13 -20 -3 0 -13 9 -23 20 -10 11 -16 20 -13 20 3 0 13 -9
23 -20z"/>
<path d="M240 650 c0 -32 20 -66 51 -84 34 -20 36 -31 9 -46 -11 -6 -20 -15
-20 -20 0 -18 21 -10 51 20 17 16 42 35 57 42 15 7 28 22 30 32 4 17 3 18 -19
2 -51 -36 -139 -2 -139 54 0 11 -4 20 -10 20 -5 0 -10 -9 -10 -20z"/>
<path d="M349 431 c-21 -16 -25 -17 -49 -3 -27 16 -60 11 -60 -8 0 -5 10 -10
23 -10 34 0 46 -18 40 -56 -7 -43 15 -47 23 -5 8 39 38 70 75 78 16 3 26 9 23
14 -9 15 -51 10 -75 -10z"/>
<path d="M390 352 c0 -4 9 -15 20 -25 21 -17 18 -42 -6 -51 -18 -7 -18 -26 -1
-26 20 0 47 33 47 57 0 11 -8 27 -18 36 -19 18 -42 23 -42 9z"/>
<path d="M710 635 c-6 -19 -20 -40 -30 -45 -27 -15 -72 -12 -97 5 -15 10 -24
12 -28 4 -8 -12 20 -36 52 -45 12 -3 25 -15 29 -26 6 -21 50 -45 61 -34 4 4
-6 18 -22 31 l-30 23 25 10 c35 13 59 42 66 80 9 44 -11 41 -26 -3z"/>
<path d="M550 441 c0 -5 13 -11 30 -14 16 -4 38 -16 47 -27 21 -24 36 -25 53
-5 7 9 21 14 31 13 10 -2 18 2 19 7 1 14 -50 19 -63 6 -7 -7 -18 -4 -35 9 -25
20 -82 28 -82 11z"/>
<path d="M546 344 c-30 -30 -10 -94 30 -94 21 0 17 18 -6 30 -11 6 -20 17 -20
25 0 8 9 19 20 25 11 6 20 15 20 20 0 15 -27 12 -44 -6z"/>
</g>
</svg>
