<?xml version="1.0" standalone="no"?>
<!DOCTYPE svg PUBLIC "-//W3C//DTD SVG 20010904//EN"
 "http://www.w3.org/TR/2001/REC-SVG-20010904/DTD/svg10.dtd">
<svg version="1.0" xmlns="http://www.w3.org/2000/svg"
 width="64.000000pt" height="64.000000pt" viewBox="0 0 64.000000 64.000000"
 preserveAspectRatio="xMidYMid meet">

<g transform="translate(0.000000,64.000000) scale(0.100000,-0.100000)"
fill="#000000" stroke="none">
<path d="M142 578 c-17 -17 -17 -509 0 -526 16 -16 80 -16 96 0 8 8 12 45 12
100 0 85 1 88 23 88 16 -1 39 -23 82 -81 89 -119 89 -119 146 -119 67 0 72 17
23 78 -21 26 -53 66 -72 89 l-34 43 24 9 c41 15 86 71 96 118 20 93 -32 179
-121 202 -62 15 -259 15 -275 -1z m316 -28 c52 -32 74 -75 70 -141 -5 -67 -31
-109 -88 -137 l-40 -20 66 -83 c37 -46 72 -90 77 -97 7 -9 -3 -12 -46 -12
l-55 0 -73 100 c-67 90 -77 99 -106 100 l-33 0 0 -100 0 -100 -40 0 -40 0 0
255 0 255 138 0 c119 0 141 -3 170 -20z"/>
<path d="M230 415 l0 -115 59 0 c108 0 154 35 154 115 0 80 -46 115 -154 115
l-59 0 0 -115z m179 69 c28 -36 28 -102 0 -138 -19 -24 -27 -26 -90 -26 l-69
0 0 95 0 95 69 0 c63 0 71 -2 90 -26z"/>
<path d="M280 490 c0 -5 5 -10 10 -10 6 0 10 5 10 10 0 6 -4 10 -10 10 -5 0
-10 -4 -10 -10z"/>
<path d="M280 440 c0 -5 5 -10 10 -10 6 0 10 5 10 10 0 6 -4 10 -10 10 -5 0
-10 -4 -10 -10z"/>
<path d="M280 390 c0 -5 5 -10 10 -10 6 0 10 5 10 10 0 6 -4 10 -10 10 -5 0
-10 -4 -10 -10z"/>
<path d="M280 340 c0 -5 5 -10 10 -10 6 0 10 5 10 10 0 6 -4 10 -10 10 -5 0
-10 -4 -10 -10z"/>
<path d="M460 504 c0 -5 7 -18 15 -28 12 -16 15 -17 15 -4 0 8 -7 21 -15 28
-8 7 -15 9 -15 4z"/>
<path d="M483 390 c-7 -24 -10 -46 -8 -49 8 -7 26 52 23 73 -2 14 -7 6 -15
-24z"/>
</g>
</svg>
