<?xml version="1.0" standalone="no"?>
<!DOCTYPE svg PUBLIC "-//W3C//DTD SVG 20010904//EN"
 "http://www.w3.org/TR/2001/REC-SVG-20010904/DTD/svg10.dtd">
<svg version="1.0" xmlns="http://www.w3.org/2000/svg"
 width="48.000000pt" height="48.000000pt" viewBox="0 0 48.000000 48.000000"
 preserveAspectRatio="xMidYMid meet">

<g transform="translate(0.000000,48.000000) scale(0.100000,-0.100000)"
fill="#000000" stroke="none">
<path d="M351 446 c-7 -9 -32 -28 -54 -43 -23 -15 -42 -35 -42 -43 0 -8 -6
-14 -13 -12 -6 1 -12 -5 -12 -14 0 -8 -4 -13 -9 -9 -6 3 -14 -2 -19 -11 -6
-10 -16 -15 -25 -11 -9 3 -38 -12 -73 -39 -32 -25 -65 -49 -74 -54 -13 -8 -11
-16 14 -65 37 -72 91 -105 179 -112 54 -4 69 -1 117 24 76 40 113 101 118 194
5 77 -16 134 -66 182 -25 24 -30 26 -41 13z m41 -53 c56 -126 -3 -271 -122
-303 -63 -17 -128 6 -192 68 -43 41 -52 68 -11 31 81 -72 115 -84 189 -68 47
11 61 20 92 57 31 38 37 52 40 108 4 52 0 70 -17 99 -19 32 -21 55 -5 55 3 0
15 -21 26 -47z m33 -23 c17 -33 18 -40 7 -40 -4 0 -12 16 -18 35 -13 43 -10
45 11 5z m25 -80 c0 -11 -4 -20 -10 -20 -5 0 -10 9 -10 20 0 11 5 20 10 20 6
0 10 -9 10 -20z m0 -60 c0 -22 -4 -28 -15 -24 -15 6 -20 35 -8 47 14 15 23 6
23 -23z m-16 -48 c8 -13 -11 -35 -23 -28 -16 10 -14 36 3 36 8 0 17 -4 20 -8z
m-366 -48 c-4 -3 -12 5 -18 18 -12 22 -12 22 6 6 10 -10 15 -20 12 -24z m327
-24 c-16 -18 -20 -19 -27 -6 -5 9 -4 23 4 35 11 18 14 19 27 6 13 -13 12 -17
-4 -35z m-284 -13 c-7 -7 -15 -6 -25 3 -22 17 -9 32 16 19 14 -8 17 -14 9 -22z
m239 -21 c-14 -14 -24 0 -16 21 6 15 8 15 16 3 6 -9 5 -19 0 -24z m-160 -13
c0 -16 -12 -16 -44 -2 -13 6 -22 17 -20 24 7 17 64 -3 64 -22z m128 11 c-2 -9
-13 -20 -25 -25 -19 -7 -23 -5 -23 11 0 16 12 25 43 29 5 0 7 -6 5 -15z m-68
-19 c0 -9 -9 -15 -25 -15 -18 0 -23 4 -19 15 4 8 15 15 25 15 10 0 19 -7 19
-15z"/>
</g>
</svg>
