<?xml version="1.0" standalone="no"?>
<!DOCTYPE svg PUBLIC "-//W3C//DTD SVG 20010904//EN"
 "http://www.w3.org/TR/2001/REC-SVG-20010904/DTD/svg10.dtd">
<svg version="1.0" xmlns="http://www.w3.org/2000/svg"
 width="64.000000pt" height="64.000000pt" viewBox="0 0 64.000000 64.000000"
 preserveAspectRatio="xMidYMid meet">

<g transform="translate(0.000000,64.000000) scale(0.100000,-0.100000)"
fill="#000000" stroke="none">
<path d="M105 596 c-37 -16 -82 -67 -91 -102 -4 -14 -4 -47 -2 -74 6 -64 43
-113 103 -135 l45 -18 0 -118 c0 -148 4 -149 115 -39 l81 81 32 -17 c65 -32
150 -16 198 38 34 37 44 63 44 113 0 120 -110 200 -220 160 -25 -8 -49 -17
-54 -18 -5 -1 -13 12 -18 28 -31 91 -144 140 -233 101z m153 -23 c41 -31 64
-78 64 -132 0 -94 -57 -155 -148 -156 -157 -1 -214 213 -78 293 48 28 121 26
162 -5z m122 -117 c0 -2 -8 -10 -17 -17 -16 -13 -17 -12 -4 4 13 16 21 21 21
13z m135 -32 c68 -32 82 -124 27 -177 -95 -90 -237 16 -177 133 28 55 90 73
150 44z m-159 -207 c15 -18 15 -19 1 -6 -17 15 -23 11 -87 -55 l-70 -71 0 90
0 90 45 22 c42 20 46 21 51 5 13 -40 25 -64 30 -59 3 3 1 14 -5 25 -6 12 -11
33 -10 49 0 22 3 17 13 -20 7 -26 21 -57 32 -70z m-166 -62 c0 -70 -4 -115
-10 -115 -6 0 -10 45 -10 115 0 70 4 115 10 115 6 0 10 -45 10 -115z m89 -31
c-41 -41 -76 -69 -78 -63 -5 15 130 150 142 142 5 -3 -24 -39 -64 -79z"/>
<path d="M123 555 c-66 -28 -92 -117 -53 -179 46 -76 152 -82 205 -12 49 64
28 153 -45 191 -36 18 -65 18 -107 0z m141 -46 c25 -28 28 -37 23 -78 -14
-123 -183 -140 -218 -21 -36 119 109 193 195 99z"/>
<path d="M126 499 c-50 -39 -26 -122 40 -135 24 -4 37 0 59 18 38 34 39 82 1
115 -34 28 -65 29 -100 2z m77 0 c28 -15 37 -28 37 -58 0 -35 -28 -61 -66 -61
-61 0 -86 71 -38 109 31 24 37 25 67 10z"/>
<path d="M156 467 c-26 -19 -17 -51 17 -55 31 -4 47 20 30 46 -13 22 -26 24
-47 9z m42 -24 c5 -17 -26 -29 -40 -15 -6 6 -7 15 -3 22 9 14 37 9 43 -7z"/>
<path d="M32 450 c0 -14 2 -19 5 -12 2 6 2 18 0 25 -3 6 -5 1 -5 -13z"/>
<path d="M412 383 c-52 -45 -18 -133 51 -133 66 0 103 84 57 130 -25 25 -80
26 -108 3z m67 -47 c9 -10 8 -16 -4 -26 -19 -16 -41 1 -32 24 8 20 21 20 36 2z"/>
</g>
</svg>
