<?xml version="1.0" standalone="no"?>
<!DOCTYPE svg PUBLIC "-//W3C//DTD SVG 20010904//EN"
 "http://www.w3.org/TR/2001/REC-SVG-20010904/DTD/svg10.dtd">
<svg version="1.0" xmlns="http://www.w3.org/2000/svg"
 width="50.000000pt" height="50.000000pt" viewBox="0 0 50.000000 50.000000"
 preserveAspectRatio="xMidYMid meet">

<g transform="translate(0.000000,50.000000) scale(0.100000,-0.100000)"
fill="#000000" stroke="none">
<path d="M240 480 c0 -11 5 -20 10 -20 6 0 10 9 10 20 0 11 -4 20 -10 20 -5 0
-10 -9 -10 -20z"/>
<path d="M132 468 c3 -7 15 -43 27 -81 13 -37 26 -65 31 -62 11 7 -39 155 -52
155 -6 0 -8 -6 -6 -12z"/>
<path d="M327 405 c-14 -41 -22 -77 -17 -80 5 -3 18 25 31 62 12 38 24 74 27
81 2 6 0 12 -6 12 -6 0 -22 -34 -35 -75z"/>
<path d="M34 457 c-17 -19 11 -43 29 -25 11 10 12 15 1 25 -15 16 -16 16 -30
0z"/>
<path d="M434 457 c-17 -19 11 -43 29 -25 11 10 12 15 1 25 -15 16 -16 16 -30
0z"/>
<path d="M233 415 c-19 -21 13 -44 32 -24 13 13 12 16 -3 25 -13 8 -20 8 -29
-1z"/>
<path d="M71 400 c0 -20 45 -75 52 -63 4 5 -7 25 -23 44 -18 20 -29 28 -29 19z"/>
<path d="M396 378 c-31 -40 -22 -61 10 -22 21 26 31 54 20 54 -3 0 -16 -14
-30 -32z"/>
<path d="M240 330 c0 -11 5 -20 10 -20 6 0 10 9 10 20 0 11 -4 20 -10 20 -5 0
-10 -9 -10 -20z"/>
<path d="M90 206 l0 -106 43 0 c23 0 57 -4 75 -9 l32 -10 0 99 c0 115 -2 118
-96 127 l-54 6 0 -107z"/>
<path d="M300 297 l-35 -12 -3 -102 -3 -102 33 10 c18 5 52 9 75 9 l43 0 0
105 0 105 -37 -1 c-21 0 -54 -5 -73 -12z"/>
<path d="M42 158 l3 -123 90 -7 c111 -10 119 -10 230 0 l90 7 0 119 c0 87 -3
120 -12 124 -10 3 -13 -21 -13 -96 l0 -99 -77 -7 c-97 -9 -109 -9 -205 0 l-78
7 0 98 c0 82 -3 99 -15 99 -13 0 -15 -18 -13 -122z"/>
</g>
</svg>
