<?xml version="1.0" standalone="no"?>
<!DOCTYPE svg PUBLIC "-//W3C//DTD SVG 20010904//EN"
 "http://www.w3.org/TR/2001/REC-SVG-20010904/DTD/svg10.dtd">
<svg version="1.0" xmlns="http://www.w3.org/2000/svg"
 width="50.000000pt" height="50.000000pt" viewBox="0 0 50.000000 50.000000"
 preserveAspectRatio="xMidYMid meet">

<g transform="translate(0.000000,50.000000) scale(0.100000,-0.100000)"
fill="#000000" stroke="none">
<path d="M221 466 c-6 -7 -22 -11 -36 -8 -19 3 -27 -1 -36 -22 -7 -14 -18 -26
-26 -26 -7 0 -18 -9 -25 -20 -7 -11 -19 -20 -26 -20 -10 0 -12 -8 -8 -27 4
-17 0 -40 -9 -57 -19 -36 -19 -50 1 -67 14 -12 14 -14 -6 -21 -16 -6 -21 -15
-18 -35 3 -25 7 -28 46 -31 36 -3 43 0 50 19 8 20 9 21 16 4 16 -43 72 -116
92 -121 23 -6 64 10 64 25 0 4 11 21 25 37 14 16 25 31 25 34 0 3 24 6 53 5
48 0 52 2 55 24 2 15 -3 30 -12 37 -14 10 -15 13 -1 24 17 14 20 41 4 57 -5 5
-10 29 -11 52 0 27 -5 41 -14 41 -16 0 -64 43 -64 58 0 15 -38 35 -55 28 -7
-2 -19 2 -25 10 -16 18 -44 18 -59 0z m56 -20 c4 -7 19 -13 33 -12 18 1 26 -5
28 -20 2 -12 13 -26 25 -32 21 -10 20 -11 -9 -11 -25 -1 -33 -6 -38 -26 -4
-14 -11 -25 -16 -25 -14 0 -12 17 3 24 6 3 3 5 -8 3 -30 -3 -27 -42 3 -41 24
1 24 -7 1 -66 -8 -21 -16 -25 -49 -25 -33 0 -41 4 -49 25 -23 59 -23 67 1 66
17 -1 23 5 23 19 0 14 -6 20 -22 19 -13 0 -23 5 -23 13 0 8 -13 13 -36 13 -21
0 -33 4 -29 10 3 6 15 10 25 10 12 0 20 8 22 23 2 16 9 22 28 21 14 -1 29 5
33 12 4 8 17 14 27 14 10 0 23 -6 27 -14z m-122 -106 c-8 -13 -35 -13 -55 0
-11 7 -5 10 23 10 23 0 36 -4 32 -10z m250 0 c-8 -13 -35 -13 -55 0 -11 7 -5
10 23 10 23 0 36 -4 32 -10z m-185 -10 c0 -5 -4 -10 -10 -10 -5 0 -10 5 -10
10 0 6 5 10 10 10 6 0 10 -4 10 -10z m-51 -55 c13 -53 51 -109 77 -113 28 -4
63 37 82 99 17 52 18 54 55 55 30 1 37 -2 32 -14 -3 -8 2 -23 12 -34 16 -18
16 -20 -8 -41 -13 -13 -32 -26 -41 -30 -16 -5 -52 -54 -61 -81 -2 -6 -13 0
-25 12 -28 28 -56 28 -83 1 -11 -11 -22 -19 -24 -17 -1 1 -10 18 -19 36 -9 18
-28 38 -41 44 -14 6 -25 15 -25 20 0 4 -7 8 -15 8 -24 0 -29 27 -12 63 13 27
21 32 51 32 32 0 36 -3 45 -40z m98 -86 c-14 -8 -22 -8 -30 0 -8 8 -3 11 19
11 25 -1 27 -2 11 -11z m-157 -24 c0 -10 -10 -15 -30 -15 -20 0 -30 5 -30 15
0 10 10 15 30 15 20 0 30 -5 30 -15z m330 0 c0 -10 -10 -15 -30 -15 -20 0 -30
5 -30 15 0 10 10 15 30 15 20 0 30 -5 30 -15z m-160 -50 c26 -32 -13 -81 -47
-59 -10 6 -19 19 -21 28 -8 38 43 61 68 31z"/>
</g>
</svg>
