<?xml version="1.0" standalone="no"?>
<!DOCTYPE svg PUBLIC "-//W3C//DTD SVG 20010904//EN"
 "http://www.w3.org/TR/2001/REC-SVG-20010904/DTD/svg10.dtd">
<svg version="1.0" xmlns="http://www.w3.org/2000/svg"
 width="50.000000pt" height="50.000000pt" viewBox="0 0 50.000000 50.000000"
 preserveAspectRatio="xMidYMid meet">

<g transform="translate(0.000000,50.000000) scale(0.100000,-0.100000)"
fill="#000000" stroke="none">
<path d="M242 463 c0 -10 -2 -25 -6 -34 -4 -9 -1 -21 7 -28 12 -9 16 -5 21 24
4 19 4 40 1 45 -10 16 -24 11 -23 -7z"/>
<path d="M80 410 c0 -5 5 -10 10 -10 6 0 10 -6 10 -14 0 -18 26 -39 39 -31 7
4 3 17 -11 36 -21 28 -48 39 -48 19z"/>
<path d="M388 403 c-16 -8 -28 -22 -28 -34 0 -19 2 -18 35 7 52 39 47 56 -7
27z"/>
<path d="M195 348 c-38 -20 -55 -51 -55 -100 0 -39 5 -52 31 -77 26 -26 38
-31 79 -31 41 0 53 5 79 31 53 53 40 144 -26 178 -27 14 -82 14 -108 -1z m116
-37 c39 -40 39 -82 0 -122 -20 -20 -39 -29 -61 -29 -43 0 -90 47 -90 90 0 43
47 90 90 90 22 0 41 -9 61 -29z"/>
<path d="M197 294 c-13 -14 -7 -21 18 -21 15 0 24 4 22 11 -4 13 -30 20 -40
10z"/>
<path d="M267 294 c-13 -14 -7 -21 18 -21 15 0 24 4 22 11 -4 13 -30 20 -40
10z"/>
<path d="M192 223 c2 -10 15 -24 31 -33 24 -13 30 -13 54 0 16 9 29 23 31 33
3 15 -5 17 -58 17 -53 0 -61 -2 -58 -17z m83 -13 c-3 -5 -15 -10 -25 -10 -10
0 -22 5 -25 10 -4 6 7 10 25 10 18 0 29 -4 25 -10z"/>
<path d="M25 270 c-4 -6 -5 -13 -3 -16 10 -9 73 -9 76 1 1 6 -6 11 -15 11 -10
1 -25 5 -34 9 -10 3 -20 1 -24 -5z"/>
<path d="M410 270 c-20 -12 -10 -20 31 -23 33 -2 58 14 29 19 -8 1 -22 5 -30
8 -8 3 -22 2 -30 -4z"/>
<path d="M98 122 c-16 -10 -28 -25 -28 -36 0 -17 3 -16 32 6 53 41 50 62 -4
30z"/>
<path d="M350 130 c0 -5 5 -10 10 -10 6 0 10 -6 10 -14 0 -18 26 -39 39 -31 7
4 3 17 -11 36 -21 28 -48 39 -48 19z"/>
<path d="M242 83 c0 -10 -2 -25 -6 -34 -4 -9 -1 -21 7 -28 12 -9 16 -5 21 24
4 19 4 40 1 45 -10 16 -24 11 -23 -7z"/>
</g>
</svg>
