<?xml version="1.0" standalone="no"?>
<!DOCTYPE svg PUBLIC "-//W3C//DTD SVG 20010904//EN"
 "http://www.w3.org/TR/2001/REC-SVG-20010904/DTD/svg10.dtd">
<svg version="1.0" xmlns="http://www.w3.org/2000/svg"
 width="100.000000pt" height="100.000000pt" viewBox="0 0 100.000000 100.000000"
 preserveAspectRatio="xMidYMid meet">

<g transform="translate(0.000000,100.000000) scale(0.100000,-0.100000)"
fill="#000000" stroke="none">
<path d="M595 820 c-3 -6 -18 -7 -31 -4 -21 5 -34 -2 -76 -42 -27 -27 -59 -62
-70 -79 -11 -16 10 3 47 43 38 41 75 72 86 72 10 0 19 -3 19 -6 0 -3 -30 -39
-67 -80 l-66 -74 -53 0 c-29 0 -59 -3 -68 -6 -27 -10 -206 -215 -206 -236 0
-10 11 -29 24 -41 l24 -22 -24 -59 c-13 -33 -22 -61 -20 -64 3 -2 30 10 62 27
l57 30 19 -24 c11 -14 30 -25 42 -25 13 0 31 -9 42 -21 14 -16 27 -20 51 -16
21 4 36 1 44 -9 17 -20 53 -17 74 6 17 19 31 20 202 20 115 0 183 4 183 10 0
6 -71 10 -192 10 l-193 0 -124 38 c-129 39 -156 56 -135 90 10 15 28 17 128
17 116 0 118 0 142 28 13 15 24 36 24 45 0 22 -37 82 -50 82 -15 0 -12 -12 10
-40 27 -34 25 -55 -6 -79 -28 -22 -106 -29 -132 -13 -9 6 17 41 88 120 82 90
104 110 120 104 10 -4 62 -46 114 -95 l94 -87 56 0 c31 0 56 5 56 10 0 6 -23
10 -51 10 -50 0 -53 1 -149 89 -53 48 -103 91 -111 93 -10 4 2 22 39 61 28 31
52 64 52 75 0 36 -59 69 -75 42z m49 -16 c9 -8 16 -19 16 -24 0 -9 -48 -66
-141 -168 l-58 -64 -31 22 -30 22 49 56 c94 108 157 172 168 172 7 0 19 -7 27
-16z m-250 -196 c-10 -13 -21 -25 -24 -28 -3 -3 -47 -51 -99 -107 -51 -57 -99
-103 -106 -103 -22 0 -39 29 -29 50 5 10 49 62 97 114 87 94 89 96 134 96 l46
0 -19 -22z m50 -80 c-4 -5 -18 1 -33 14 -14 13 -28 24 -30 25 -1 1 0 7 4 13 5
8 16 3 36 -16 15 -15 26 -31 23 -36z m-47 10 c13 -12 23 -25 23 -30 0 -5 -21
-31 -46 -58 -40 -43 -52 -50 -84 -50 -50 0 -75 -27 -67 -75 5 -33 3 -37 -29
-52 -44 -21 -60 -9 -42 34 11 26 205 252 217 253 3 0 15 -10 28 -22z m-78
-274 c2 -2 -4 -7 -13 -10 -11 -4 -24 0 -34 10 -16 16 -15 17 13 10 17 -4 32
-8 34 -10z m74 -23 c18 -6 18 -8 2 -21 -12 -10 -21 -11 -33 -4 -39 25 -16 44
31 25z m91 -32 c6 -5 2 -11 -7 -15 -18 -6 -47 11 -47 28 0 10 39 1 54 -13z"/>
<path d="M298 337 c-3 -19 -2 -25 4 -19 6 6 8 18 6 28 -3 14 -5 12 -10 -9z"/>
<path d="M438 283 c7 -3 16 -2 19 1 4 3 -2 6 -13 5 -11 0 -14 -3 -6 -6z"/>
<path d="M489 267 c4 -4 70 -6 147 -5 l139 3 -147 5 c-81 3 -144 1 -139 -3z"/>
<path d="M813 263 c9 -2 25 -2 35 0 9 3 1 5 -18 5 -19 0 -27 -2 -17 -5z"/>
</g>
</svg>
