<?xml version="1.0" standalone="no"?>
<!DOCTYPE svg PUBLIC "-//W3C//DTD SVG 20010904//EN"
 "http://www.w3.org/TR/2001/REC-SVG-20010904/DTD/svg10.dtd">
<svg version="1.0" xmlns="http://www.w3.org/2000/svg"
 width="100.000000pt" height="100.000000pt" viewBox="0 0 100.000000 100.000000"
 preserveAspectRatio="xMidYMid meet">

<g transform="translate(0.000000,100.000000) scale(0.100000,-0.100000)"
fill="#000000" stroke="none">
<path d="M236 895 c-143 -75 -174 -111 -141 -161 14 -21 23 -25 48 -22 18 3
40 8 50 13 16 7 17 -3 17 -124 l0 -131 -50 0 c-41 0 -52 -4 -65 -24 -19 -29
-11 -72 15 -86 24 -13 306 -13 330 0 26 14 34 57 15 86 -12 19 -24 24 -60 24
-56 0 -57 13 -5 34 76 30 130 16 130 -35 0 -43 -10 -58 -121 -177 -88 -95 -99
-111 -99 -144 0 -61 20 -68 195 -68 173 0 195 7 195 64 0 19 -7 39 -15 46 -9
7 -52 16 -96 19 l-80 6 28 27 c28 27 29 27 78 12 111 -34 247 2 287 76 32 62
17 159 -31 192 -19 13 -19 17 -7 27 8 7 22 32 31 55 21 55 7 117 -36 157 -58
54 -190 62 -281 16 -38 -19 -43 -27 -46 -59 -3 -30 1 -40 21 -53 23 -15 28
-15 62 -1 44 19 126 21 143 4 14 -14 15 -37 3 -57 -5 -8 -33 -17 -62 -21 -45
-6 -57 -4 -87 16 -19 13 -49 26 -68 30 -39 7 -140 1 -166 -11 -17 -7 -18 3
-18 123 0 124 -1 132 -22 146 -28 20 -55 20 -92 1z m84 -165 c4 -122 7 -144
20 -141 8 2 40 11 70 19 68 18 150 5 189 -31 24 -22 32 -24 89 -18 69 7 88 21
98 68 5 26 1 37 -19 57 -21 21 -36 26 -75 26 -27 0 -66 -7 -86 -15 -42 -18
-56 -13 -56 19 0 28 50 53 123 62 135 16 226 -68 183 -169 -8 -20 -26 -42 -40
-49 -35 -15 -33 -33 4 -48 81 -34 80 -166 -3 -215 -44 -26 -142 -31 -212 -11
l-58 17 -48 -47 c-27 -27 -49 -54 -49 -61 0 -10 25 -13 100 -13 83 0 101 -3
109 -17 6 -11 6 -24 0 -35 -9 -16 -26 -18 -162 -18 -216 0 -223 13 -88 153
106 110 141 160 141 199 0 83 -77 105 -198 57 -28 -12 -32 -18 -30 -44 3 -29
5 -30 56 -33 51 -3 53 -4 50 -30 l-3 -27 -150 0 -150 0 -3 27 c-3 26 -2 27 55
30 l58 3 3 159 c1 92 -2 164 -7 169 -6 6 -22 2 -44 -12 -41 -25 -63 -27 -71
-5 -8 21 -1 30 43 59 73 45 116 65 136 63 19 -3 20 -13 25 -148z"/>
<path d="M646 488 c-4 -18 -32 -100 -40 -120 -6 -13 2 -18 44 -27 60 -13 96
-7 128 22 25 23 30 73 9 101 -21 29 -135 48 -141 24z m93 -29 c25 -9 31 -17
31 -39 0 -15 -7 -34 -17 -41 -16 -14 -96 -20 -107 -8 -3 3 -1 21 6 40 6 19 12
40 14 47 4 15 31 15 73 1z"/>
</g>
</svg>
