<?xml version="1.0" standalone="no"?>
<!DOCTYPE svg PUBLIC "-//W3C//DTD SVG 20010904//EN"
 "http://www.w3.org/TR/2001/REC-SVG-20010904/DTD/svg10.dtd">
<svg version="1.0" xmlns="http://www.w3.org/2000/svg"
 width="500.000000pt" height="500.000000pt" viewBox="0 0 500.000000 500.000000"
 preserveAspectRatio="xMidYMid meet">

<g transform="translate(0.000000,500.000000) scale(0.100000,-0.100000)"
fill="#000000" stroke="none">
<path d="M0 2500 l0 -2500 2500 0 2500 0 0 2500 0 2500 -2500 0 -2500 0 0
-2500z m1851 558 c39 -35 79 -67 88 -73 9 -5 39 -23 66 -39 102 -60 144 -89
149 -102 3 -8 11 -14 19 -14 7 0 23 -9 36 -21 21 -20 24 -20 56 -5 18 9 39 16
47 16 16 0 88 87 89 109 1 9 2 43 3 76 1 33 7 69 13 80 11 18 12 18 41 -13 31
-33 42 -32 42 4 0 13 4 25 9 29 16 9 79 -107 106 -196 43 -138 44 -139 76
-139 15 0 44 9 64 21 39 23 65 20 65 -10 0 -19 25 -35 40 -26 5 3 17 -7 27
-22 9 -15 34 -47 54 -69 21 -23 42 -59 48 -80 10 -36 9 -40 -16 -61 -23 -19
-25 -24 -13 -38 16 -19 20 -104 6 -112 -5 -4 -6 0 -1 8 8 12 6 12 -9 0 -12
-10 -13 -16 -6 -21 8 -5 7 -9 -3 -13 -12 -4 -14 0 -11 16 14 62 16 88 9 104
-11 26 -6 54 16 82 10 13 19 30 19 37 0 19 -107 124 -126 124 -18 0 -85 -66
-103 -102 -16 -31 -41 -27 -41 8 0 30 -13 31 -33 1 -12 -19 -12 -24 -1 -35 18
-17 18 -46 0 -62 -8 -6 -12 -18 -10 -25 10 -25 -15 -55 -46 -55 -17 0 -30 -4
-30 -10 0 -5 9 -10 19 -10 18 0 18 -3 5 -47 -8 -25 -13 -48 -11 -50 4 -3 22
31 31 60 4 11 13 17 23 15 25 -5 20 -85 -8 -140 -20 -39 -22 -41 -35 -23 -8
10 -14 33 -15 49 l-1 31 -10 -28 c-8 -23 -5 -42 17 -103 23 -63 25 -77 14 -92
-11 -14 -11 -15 1 -5 8 8 19 9 30 3 13 -7 16 -4 14 21 -2 31 13 49 26 29 8
-13 45 2 139 56 38 21 48 23 71 14 34 -14 86 -67 95 -97 11 -40 41 -27 36 15
-1 6 5 12 14 12 9 0 18 7 21 15 4 8 14 15 23 15 13 0 13 2 2 9 -10 7 -11 12
-1 27 10 17 11 17 6 1 -4 -11 -2 -16 5 -11 6 3 21 2 32 -3 132 -58 152 -81
152 -173 -1 -45 -7 -80 -23 -114 l-22 -49 -50 5 c-44 4 -52 2 -75 -22 -19 -20
-26 -36 -23 -56 2 -22 -5 -36 -34 -64 -35 -33 -37 -37 -28 -75 6 -25 5 -44 0
-49 -6 -6 -10 -22 -10 -36 0 -14 -7 -36 -16 -48 -19 -28 -37 -85 -23 -77 5 4
9 1 9 -5 0 -6 4 -9 9 -5 6 3 15 -3 20 -13 7 -14 6 -25 -5 -40 -13 -18 -13 -21
-1 -16 10 4 24 -14 46 -57 33 -66 43 -110 17 -76 -13 17 -16 16 -41 -15 -15
-18 -24 -27 -20 -20 3 7 -15 -1 -41 -18 l-48 -30 -367 0 c-342 0 -368 1 -373
18 -2 9 -8 48 -12 85 -6 63 -8 67 -24 52 -23 -21 -56 -19 -95 5 -29 18 -36 19
-84 6 -28 -7 -54 -10 -56 -6 -2 4 -22 10 -44 13 -22 3 -53 14 -70 26 -39 28
-59 26 -72 -6 -15 -43 -35 -54 -67 -38 -15 7 -49 23 -77 35 -54 23 -100 60
-128 103 -15 24 -24 27 -72 27 -54 0 -135 26 -135 43 0 5 -23 6 -50 2 -34 -5
-55 -3 -65 5 -11 9 -15 9 -15 1 0 -6 -5 -11 -12 -11 -22 0 -88 34 -88 46 0 6
-11 15 -25 18 -13 3 -30 16 -37 29 -23 39 -66 182 -57 185 58 21 206 156 315
285 21 25 39 37 58 37 14 0 26 -3 26 -7 0 -5 -16 -46 -35 -93 -34 -84 -45
-153 -25 -165 6 -4 8 -15 5 -26 -4 -10 -2 -19 4 -19 6 0 29 36 51 80 33 66 44
80 64 80 13 0 40 14 61 30 39 31 59 33 35 5 -7 -9 -10 -19 -6 -23 4 -3 22 11
40 32 26 31 36 37 54 32 16 -5 22 -3 22 7 0 24 -69 28 -81 5 -11 -20 -44 -24
-55 -7 -3 6 -19 9 -35 5 -18 -3 -29 -1 -29 5 0 27 -28 -16 -65 -100 -22 -50
-44 -91 -49 -91 -15 0 3 77 37 163 l33 82 225 -2 c129 -1 211 2 194 6 -16 5
-114 9 -217 10 -104 0 -188 4 -188 7 0 10 202 448 213 462 11 14 3 27 -11 18
-5 -3 -29 -38 -52 -78 -23 -40 -92 -148 -152 -239 l-110 -167 -107 -6 c-58 -4
-130 -9 -160 -13 l-54 -6 19 26 c10 14 30 28 43 32 36 9 71 36 71 54 0 9 -13
22 -30 29 -16 8 -30 20 -30 27 0 8 -9 19 -20 25 -11 6 -20 8 -20 4 0 -3 -7 -1
-15 6 -8 7 -21 10 -29 7 -7 -3 -19 0 -25 6 -10 9 -19 4 -42 -21 -32 -35 -38
-58 -13 -48 12 5 11 -1 -6 -29 -11 -19 -20 -40 -19 -47 4 -22 -13 -68 -22 -62
-18 11 -10 108 12 144 27 43 113 127 142 137 19 6 16 8 -18 13 -26 4 -48 0
-63 -9 -35 -21 -92 -21 -132 -1 -19 11 -44 23 -56 28 -37 18 -77 82 -82 131
-5 51 29 184 54 212 8 8 14 19 14 23 0 4 17 25 38 46 50 52 57 62 76 98 23 44
45 40 86 -15 65 -87 73 -89 98 -37 l17 36 64 -6 c77 -8 157 13 213 56 48 38
134 64 154 47 16 -13 19 -75 4 -84 -6 -4 -4 -15 5 -29 8 -12 12 -26 8 -30 -4
-4 0 -4 9 -1 9 4 26 1 38 -5 20 -11 20 -13 5 -24 -15 -11 -12 -14 24 -28 29
-12 41 -22 41 -37 0 -14 15 -29 48 -47 26 -15 59 -35 74 -45 15 -11 34 -19 42
-19 8 0 16 -5 18 -12 6 -18 28 1 28 25 0 12 -16 35 -37 54 -37 32 -38 33 -23
60 9 15 26 32 38 38 14 6 22 19 22 33 0 20 4 22 23 16 12 -3 24 -11 25 -15 2
-5 8 -9 13 -9 10 0 1 29 -17 50 -7 8 -14 26 -16 40 -2 20 3 27 25 35 l29 11
-38 24 c-39 26 -62 74 -51 104 13 33 55 17 128 -46z m-351 -218 c0 -5 -2 -10
-4 -10 -3 0 -8 5 -11 10 -3 6 -1 10 4 10 6 0 11 -4 11 -10z m54 -5 c-10 -8
-23 -15 -28 -15 -6 0 -1 7 10 15 10 8 23 15 28 15 6 0 1 -7 -10 -15z m1433
-417 c-3 -8 -6 -5 -6 6 -1 11 2 17 5 13 3 -3 4 -12 1 -19z m-1586 -110 c-77
-176 -89 -198 -115 -198 -14 0 -26 2 -26 5 0 6 152 235 156 235 2 0 -5 -19
-15 -42z m1502 15 c-31 -21 -29 -41 5 -46 l27 -4 -28 -2 c-38 -2 -48 26 -18
51 13 10 26 18 30 17 3 0 -4 -7 -16 -16z m106 -6 c-2 -1 -13 -9 -24 -17 -19
-14 -19 -14 -6 3 7 9 18 17 24 17 6 0 8 -1 6 -3z m-190 -95 c-12 -5 -39 17
-39 30 0 5 11 1 24 -9 13 -10 20 -20 15 -21z m-89 -11 c0 -6 -4 -13 -10 -16
-5 -3 -10 1 -10 9 0 9 5 16 10 16 6 0 10 -4 10 -9z m-1853 -127 c-3 -3 -12 -4
-19 -1 -8 3 -5 6 6 6 11 1 17 -2 13 -5z m323 0 c0 -3 -29 -41 -65 -84 -64 -76
-155 -156 -226 -198 -33 -20 -36 -20 -50 -4 -33 38 -58 90 -65 130 -5 35 -3
45 12 57 11 8 29 15 42 15 13 0 20 4 17 10 -3 6 -1 10 4 10 6 0 11 6 11 14 0
24 32 41 89 47 78 8 231 10 231 3z m-323 -20 c-3 -3 -12 -4 -19 -1 -8 3 -5 6
6 6 11 1 17 -2 13 -5z m-60 -10 c-3 -3 -12 -4 -19 -1 -8 3 -5 6 6 6 11 1 17
-2 13 -5z m-197 -38 c0 -2 -7 -7 -16 -10 -8 -3 -12 -2 -9 4 6 10 25 14 25 6z
m790 -4 c0 -4 -15 -16 -32 -26 l-33 -19 24 26 c24 27 41 34 41 19z m-850 -26
c0 -2 -8 -10 -17 -17 -16 -13 -17 -12 -4 4 13 16 21 21 21 13z m10 -19 c0 -2
-10 -12 -22 -23 l-23 -19 19 23 c18 21 26 27 26 19z m-14 -149 l29 -33 -32 29
c-18 17 -33 31 -33 33 0 8 8 1 36 -29z m151 -64 c-3 -3 -12 -4 -19 -1 -8 3 -5
6 6 6 11 1 17 -2 13 -5z m80 0 c-3 -3 -12 -4 -19 -1 -8 3 -5 6 6 6 11 1 17 -2
13 -5z m-34 -21 c-13 -2 -33 -2 -45 0 -13 2 -3 4 22 4 25 0 35 -2 23 -4z"/>
<path d="M1740 2649 c0 -5 5 -7 10 -4 6 3 10 8 10 11 0 2 -4 4 -10 4 -5 0 -10
-5 -10 -11z"/>
<path d="M2440 2652 c0 -5 11 -17 25 -26 18 -12 25 -25 25 -47 0 -26 3 -30 22
-27 25 3 37 28 15 28 -9 0 -18 8 -22 18 -7 20 -65 68 -65 54z"/>
<path d="M1948 2134 c-37 -65 -47 -77 -72 -80 -16 -2 -43 -17 -60 -33 -39 -38
-55 -39 -48 -6 5 27 -10 33 -38 15 -9 -6 -17 -5 -21 1 -3 6 -19 -3 -37 -20
-18 -19 -41 -31 -56 -31 -36 0 -33 16 5 24 22 4 30 11 27 23 -5 27 -33 27 -64
-1 -24 -20 -27 -28 -18 -43 15 -25 101 -27 129 -3 34 29 49 35 43 18 -11 -26
6 -40 35 -29 17 7 28 7 32 1 11 -18 45 -11 70 14 23 23 24 23 29 3 4 -15 10
-18 30 -13 14 3 28 2 31 -4 17 -28 125 8 125 41 0 6 -12 1 -26 -10 -27 -22
-84 -29 -84 -11 0 6 11 10 24 10 30 0 54 26 38 42 -13 13 -39 3 -84 -34 -15
-12 -30 -20 -32 -17 -3 2 15 52 40 109 50 118 47 110 35 110 -6 0 -29 -34 -53
-76z m-75 -119 c-21 -28 -43 -40 -43 -23 0 17 31 48 47 48 11 0 10 -6 -4 -25z
m-248 5 c-3 -5 -11 -10 -16 -10 -6 0 -7 5 -4 10 3 6 11 10 16 10 6 0 7 -4 4
-10z m405 6 c0 -2 -7 -6 -15 -10 -8 -3 -15 -1 -15 4 0 6 7 10 15 10 8 0 15 -2
15 -4z"/>
<path d="M3060 2080 c-8 -16 -8 -20 4 -20 16 0 29 27 16 35 -5 3 -14 -4 -20
-15z"/>
<path d="M2543 2060 c-3 -13 -14 -20 -29 -20 -12 0 -26 -5 -30 -11 -4 -8 -9
-7 -15 2 -8 11 -12 10 -24 -5 -12 -16 -15 -17 -15 -4 0 30 -62 32 -86 2 -18
-22 -78 -44 -95 -34 -19 13 0 44 30 48 29 5 27 22 -3 22 -26 0 -69 -45 -63
-64 7 -21 48 -34 79 -25 20 5 36 4 49 -4 14 -9 26 -9 49 0 20 7 30 8 30 1 0
-6 6 -8 14 -5 7 3 19 0 26 -6 10 -9 11 -8 6 8 -4 14 0 24 14 32 16 11 18 10
13 -3 -3 -8 3 -25 14 -37 11 -12 26 -32 33 -45 7 -14 17 -21 26 -18 9 3 16 -4
20 -19 7 -26 19 -31 44 -15 11 7 19 2 33 -23 l18 -32 -7 30 c-5 17 -8 48 -9
69 0 35 -4 41 -29 47 -16 5 -33 6 -37 4 -3 -3 -12 2 -19 11 -10 11 -10 18 -2
26 17 17 15 28 -4 21 -13 -5 -15 0 -10 31 6 38 -12 52 -21 16z m-153 -65 c-16
-19 -30 -19 -30 0 0 17 33 38 38 24 2 -5 -2 -16 -8 -24z m180 -36 c0 -5 -4 -9
-10 -9 -5 0 -10 7 -10 16 0 8 5 12 10 9 6 -3 10 -10 10 -16z"/>
<path d="M2718 2036 c-19 -26 -34 -76 -23 -76 4 0 23 17 41 38 25 28 36 34 42
24 7 -10 11 -10 22 2 13 17 11 19 -40 30 -18 3 -30 -1 -42 -18z"/>
<path d="M2928 2040 c-17 -13 -28 -16 -35 -9 -19 19 -77 6 -90 -21 -24 -49 29
-69 72 -26 23 23 23 23 29 3 4 -18 11 -19 60 -14 37 4 56 2 59 -6 3 -9 11 -9
33 -1 20 7 37 7 52 1 18 -8 29 -6 50 10 40 30 36 57 -9 61 -29 2 -39 -2 -52
-21 -9 -13 -25 -27 -36 -30 -24 -6 -24 -6 -11 27 11 31 -4 36 -20 6 -14 -25
-86 -48 -102 -32 -15 15 17 52 44 52 11 0 16 5 13 10 -9 15 -30 12 -57 -10z
m-60 -26 c-4 -20 -34 -41 -44 -31 -8 8 24 47 38 47 5 0 8 -7 6 -16z m302 9 c0
-10 -32 -43 -42 -43 -12 0 -10 24 4 38 13 13 38 16 38 5z"/>
<path d="M2524 1795 c-7 -39 -14 -45 -64 -61 l-35 -10 33 -18 c32 -16 32 -18
27 -69 l-6 -52 33 38 34 38 22 -26 c30 -35 43 -32 31 7 -13 45 -13 44 26 68
47 29 44 40 -8 40 -42 0 -44 1 -56 40 -15 49 -28 51 -37 5z m50 -58 c6 -4 25
-6 41 -3 27 4 26 3 -8 -11 -40 -17 -41 -22 -20 -80 5 -15 1 -14 -20 6 l-26 24
-20 -24 c-23 -27 -26 -23 -11 16 9 24 7 27 -23 40 l-32 14 32 1 c35 0 52 21
54 62 0 20 2 19 11 -7 6 -16 16 -33 22 -38z"/>
<path d="M2902 1777 c-26 -28 -28 -37 -6 -37 8 0 13 -4 10 -9 -3 -5 2 -12 12
-16 16 -7 15 -8 -3 -15 -35 -15 -130 -11 -151 5 -19 15 -19 15 1 9 16 -6 17
-4 8 6 -7 8 -17 9 -27 3 -15 -8 -14 -11 5 -32 20 -21 28 -23 90 -17 79 7 105
20 112 55 5 27 -8 71 -21 71 -5 0 -18 -10 -30 -23z"/>
<path d="M2826 1618 c-8 -13 -22 -40 -31 -62 l-16 -38 -60 4 c-32 2 -59 1 -59
-4 0 -5 14 -21 32 -37 l31 -28 -26 -48 c-15 -26 -27 -51 -27 -56 0 -19 28 -8
69 27 23 20 43 35 45 33 2 -2 15 -27 30 -55 32 -60 61 -69 52 -17 -3 18 -9 48
-12 67 l-6 34 52 11 c28 6 55 9 60 6 4 -3 10 4 13 15 3 11 1 18 -3 15 -5 -3
-31 0 -59 7 -52 12 -56 17 -54 76 1 6 -2 12 -6 12 -4 0 -6 14 -3 30 5 36 -2
38 -22 8z m18 -100 c5 -20 13 -28 29 -28 12 0 28 -4 36 -9 11 -7 4 -12 -27
-22 -40 -12 -41 -13 -44 -63 l-3 -51 -23 43 c-24 45 -25 45 -79 5 -39 -28 -41
-22 -12 32 l21 39 -22 18 c-22 18 -22 18 22 18 43 0 46 2 64 41 19 44 25 41
38 -23z"/>
<path d="M2402 1524 l1 -59 6 48 6 49 35 -56 35 -55 54 -1 55 0 -34 -35 c-32
-33 -33 -36 -22 -72 6 -20 10 -38 8 -40 -1 -1 -18 8 -36 22 -19 14 -39 25 -45
25 -6 0 -24 -26 -40 -57 l-29 -58 -7 40 c-6 40 -6 40 -8 -12 0 -29 1 -53 4
-53 3 0 21 25 41 55 20 30 41 55 47 55 5 0 32 -16 58 -35 54 -38 59 -32 29 34
-11 24 -20 48 -20 54 0 5 19 29 43 51 l42 41 -65 3 c-61 3 -67 5 -88 36 -12
18 -34 43 -47 56 l-25 23 2 -59z"/>
<path d="M2390 1445 c0 -9 -10 -19 -22 -24 -13 -4 -17 -10 -11 -14 19 -12 43
4 43 29 0 13 -2 24 -5 24 -3 0 -5 -7 -5 -15z"/>
<path d="M2288 1399 c-26 -10 -44 -34 -30 -43 18 -11 122 -33 122 -26 0 13
-59 30 -78 23 -9 -3 -14 -3 -10 2 4 4 3 14 -3 21 -8 10 -5 11 12 7 16 -5 20
-3 14 6 -6 10 -2 11 15 6 15 -5 20 -4 16 4 -8 13 -21 13 -58 0z"/>
</g>
</svg>
